<?xml version="1.0" encoding="utf-8"?>
<!-- Generator: Adobe Illustrator 25.0.0, SVG Export Plug-In . SVG Version: 6.00 Build 0)  -->
<svg version="1.1" id="Layer_1" xmlns="http://www.w3.org/2000/svg" xmlns:xlink="http://www.w3.org/1999/xlink" x="0px" y="0px"
	 viewBox="0 0 223 152" style="enable-background:new 0 0 223 152;" xml:space="preserve">
<style type="text/css">
	.st0{fill:#FF0000;}
	.st1{fill:#E50303;}
	.st2{fill:#FFFFFF;}
</style>
<g>
	<g>
		<circle class="st0" cx="186.24" cy="37.43" r="32.57"/>
		<rect x="153.67" y="4.85" class="st1" width="32.58" height="65.15"/>
	</g>
	<g>
		<circle class="st0" cx="109.6" cy="114.57" r="32.57"/>
		<circle class="st2" cx="109.6" cy="114.57" r="5.43"/>
	</g>
	<g>
		<circle class="st0" cx="36.76" cy="114.57" r="32.57"/>
		<rect x="4.18" y="82" class="st1" width="32.58" height="65.15"/>
	</g>
	<g>
		<rect x="169.95" y="82" class="st0" width="32.58" height="65.15"/>
		
			<rect x="169.95" y="65.71" transform="matrix(-1.836970e-16 1 -1 -1.836970e-16 284.5262 -87.9587)" class="st1" width="32.58" height="65.15"/>
	</g>
	<g>
		<circle class="st0" cx="33.14" cy="33.81" r="28.95"/>
		<rect x="4.18" y="4.85" class="st0" width="28.96" height="57.91"/>
		<polyline class="st1" points="62.09,70.03 4.18,70.03 4.18,4.88 		"/>
	</g>
	<g>
		<polyline class="st0" points="138.74,4.88 80.82,4.88 80.82,70.03 		"/>
		<polyline class="st1" points="138.37,70.03 80.46,70.03 80.46,4.88 		"/>
	</g>
</g>
</svg>
